<svg xmlns="http://www.w3.org/2000/svg" viewBox="0 0 32 32" role="img" aria-label="TRAK">
  <rect width="32" height="32" rx="8" fill="#000000"/>
  <svg x="6" y="3" width="20" height="26" viewBox="0 0 60.860584 73.167122" preserveAspectRatio="xMidYMid meet">
    <g transform="matrix(0.97610256,0,0,0.97610256,-72.207068,-108.36767)">
      <g transform="matrix(0.26458333,0,0,0.26458333,35.395505,93.062237)">
        <path
          fill="#ffffff"
          d="m 223.59134,151.67709 c 0.73413,-5.37831 -1.61124,-6.55731 -6.2731,-6.51182 -21.82999,0.21298 -43.6632,0.11342 -65.49517,0.0773 -1.93804,-0.003 -3.99961,0.54105 -6.01127,-0.88183 0.70208,-3.35953 3.29977,-3.64586 5.98716,-3.66159 6.46048,-0.0378 12.92136,-0.0122 19.40581,-0.51474 -6.05972,-2.2118 -12.5791,0.0687 -18.71074,-1.799 2.52204,-6.72885 8.13495,-9.42529 16.82976,-9.12804 9.27895,0.31724 18.57715,0.0714 27.86694,0.0714 0.0177,-0.43981 0.0354,-0.8796 0.0531,-1.3194 -11.188,0 -22.37599,0 -34.84036,0 4.26835,-5.88651 7.5016,-9.69205 14.02731,-9.54325 14.82549,0.33805 29.66248,0.17233 44.49478,0.21 1.80568,0.005 3.61139,6.3e-4 5.41709,6.3e-4 0.0108,-0.45262 0.0216,-0.90525 0.0325,-1.35787 -17.14979,0 -34.29961,0 -51.72627,0 2.10945,-6.65244 6.99628,-9.86684 13.87953,-9.84232 15.16437,0.054 30.32869,0.13048 45.49309,0.17533 8.40335,0.0249 16.80684,0.004 25.21025,0.004 -2.7e-4,-0.54387 -5.8e-4,-1.08774 -8.9e-4,-1.63161 -24.418,0 -48.83601,0 -74.51416,0 3.67582,-5.48365 6.75406,-8.402364 12.60086,-8.516767 49.15456,-0.961807 98.30243,0.746872 147.45588,0.27607 5.91125,-0.05661 9.99197,-1.772507 13.74624,-6.194603 5.92423,-6.978081 12.36829,-13.514893 18.59293,-20.237923 1.19382,-1.289398 2.29425,-2.708481 4.35504,-3.476227 -1.78415,4.493638 -152.6384,177.95743 -157.87547,181.36957 0,-32.72795 0,-64.93578 -7.8e-4,-97.5678 m 74.99411,3.42931 c 2.75934,-2.97026 5.51871,-5.94051 9.13162,-9.82956 -9.28042,0 -17.2272,0.17943 -25.16034,-0.0719 -4.29181,-0.13596 -5.53525,1.66142 -5.33655,5.6338 0.23243,4.64626 -0.0421,9.3158 0.0972,13.96944 0.11044,3.69119 -0.61792,7.4758 0.63721,11.18229 0.63623,-0.24563 1.02869,-0.27949 1.23309,-0.49316 6.32212,-6.60883 12.62583,-13.23523 19.3978,-20.39093 z"
        />
        <path
          fill="#ffffff"
          d="m 253.68262,291.99994 c -2.8e-4,-9.6723 -2.8e-4,-18.84454 -2.8e-4,-29.06082 -3.12416,2.56878 -2.28975,4.71689 -2.29628,6.55157 -0.0648,18.1612 -0.12648,36.3237 0.0556,54.4834 0.0406,4.05069 -1.20967,6.89658 -4.3559,9.42291 -3.85606,3.09635 -7.33863,6.65781 -10.98269,10.01819 -0.48993,-0.0978 -0.97986,-0.19549 -1.46979,-0.29324 0,-12.98834 0,-25.97666 0,-38.965 0,-13.08517 0,-26.17032 0,-39.25549 -2.74684,1.64013 -2.22179,3.82278 -2.22652,5.79828 -0.0562,23.49316 -0.0504,46.98648 -0.0733,70.47973 -0.002,1.66361 0.15689,3.38715 -0.21399,4.97669 -0.56244,2.41043 -2.13692,4.58816 -4.74018,4.27685 -2.46847,-0.29522 -1.65129,-2.91973 -1.65605,-4.59439 -0.0578,-20.32736 -0.0386,-40.6549 -0.0394,-60.98242 -8e-5,-1.80749 0,-3.61499 0,-5.42248 -0.41179,-0.28364 -0.82356,-0.56727 -1.23535,-0.85089 -24.36368,24.19982 -48.72734,48.39962 -73.09102,72.59945 -0.57536,-0.55847 -1.15071,-1.11691 -1.72608,-1.67535 42.68077,-46.68372 85.36156,-93.36743 128.13106,-140.14821 2.18051,2.14532 1.5202,4.07995 1.52277,5.7919 0.0412,27.49206 -0.0823,54.98491 0.10476,82.47572 0.0348,5.11368 -2.29846,7.93607 -7.26791,10.64313 0,-14.99286 0,-29.319 0,-43.64514 -2.13702,1.41299 -1.83893,3.19662 -1.84399,4.85626 -0.0365,11.99628 -0.16645,23.99545 0.0578,35.98767 0.0827,4.42655 -1.39869,7.59091 -4.77982,10.34638 -3.68088,2.99972 -7.02765,6.40945 -11.87318,9.27087 0,-10.86188 0,-21.72372 -2.9e-4,-33.08557 z"
        />
      </g>
    </g>
  </svg>
</svg>
